<svg width="48" height="48" viewBox="0 0 48 48" fill="none" xmlns="http://www.w3.org/2000/svg">
<g clip-path="url(#clip0_1_3897)">
<path d="M24.0001 14.7999C18.9273 14.7999 14.8001 18.9271 14.8001 23.9999C14.8001 25.5839 15.2093 27.1415 15.9853 28.5159L14.8149 32.6919C14.7765 32.8291 14.8137 32.9763 14.9129 33.0783C14.9893 33.1571 15.0933 33.1999 15.2001 33.1999C15.2321 33.1999 15.2645 33.1959 15.2961 33.1883L19.6545 32.1087C20.9853 32.8231 22.4841 33.1999 24.0001 33.1999C29.0729 33.1999 33.2001 29.0727 33.2001 23.9999C33.2001 18.9271 29.0729 14.7999 24.0001 14.7999ZM28.6281 27.2463C28.4313 27.7911 27.4873 28.2883 27.0337 28.3551C26.6265 28.4147 26.1113 28.4403 25.5457 28.2627C25.2029 28.1547 24.7629 28.0115 24.1993 27.7711C21.8301 26.7607 20.2829 24.4051 20.1645 24.2495C20.0465 24.0939 19.2001 22.9851 19.2001 21.8375C19.2001 20.6899 19.8101 20.1255 20.0269 19.8919C20.2437 19.6583 20.4993 19.5999 20.6569 19.5999C20.8145 19.5999 20.9717 19.6019 21.1097 19.6083C21.2549 19.6155 21.4497 19.5535 21.6413 20.0087C21.8381 20.4759 22.3105 21.6235 22.3689 21.7407C22.4281 21.8575 22.4673 21.9939 22.3889 22.1495C22.3105 22.3051 22.2713 22.4023 22.1529 22.5387C22.0345 22.6751 21.9049 22.8427 21.7985 22.9475C21.6801 23.0639 21.5573 23.1899 21.6949 23.4235C21.8325 23.6571 22.3065 24.4207 23.0089 25.0391C23.9109 25.8335 24.6721 26.0799 24.9081 26.1967C25.1441 26.3135 25.2821 26.2939 25.4197 26.1383C25.5573 25.9823 26.0101 25.4571 26.1673 25.2239C26.3245 24.9907 26.4821 25.0291 26.6989 25.1071C26.9157 25.1847 28.0769 25.7487 28.3129 25.8655C28.5489 25.9823 28.7065 26.0407 28.7657 26.1379C28.8249 26.2347 28.8249 26.7019 28.6281 27.2463Z" fill="#575757"/>
</g>
<rect x="1" y="1" width="46" height="46" rx="23" stroke="#E7E7E7" stroke-width="2"/>
<defs>
<clipPath id="clip0_1_3897">
<rect width="20" height="20" fill="white" transform="translate(14 14)"/>
</clipPath>
</defs>
</svg>
